<mxfile host="app.diagrams.net" modified="2023-12-12T17:13:59.704Z" agent="Mozilla/5.0 (Windows NT 10.0; Win64; x64) AppleWebKit/537.36 (KHTML, like Gecko) Chrome/120.0.0.0 Safari/537.36" version="22.1.7" etag="7J6nA_vfs7R4P4ATUkXI" type="github">
  <diagram name="ページ1" id="vnsASFYCllabgI8a4BPk">
    <mxGraphModel>
      <root>
        <mxCell id="0" />
        <mxCell id="1" parent="0" />
      </root>
    </mxGraphModel>
  </diagram>
</mxfile>
